<?xml version="1.0" standalone="no"?>
<svg xmlns:xlink="http://www.w3.org/1999/xlink" id="wave" style="transform:rotate(0deg); transition: 0.3s" viewBox="0 0 1440 180" version="1.1" xmlns="http://www.w3.org/2000/svg"><defs><linearGradient id="sw-gradient-0" x1="0" x2="0" y1="1" y2="0"><stop stop-color="rgba(52, 89, 149, 1)" offset="0%"/><stop stop-color="rgba(11, 221.108, 255, 1)" offset="100%"/></linearGradient></defs><path style="transform:translate(0, 0px); opacity:1" fill="url(#sw-gradient-0)" d="M0,0L12.6,3C25.3,6,51,12,76,15C101.1,18,126,18,152,39C176.8,60,202,102,227,126C252.6,150,278,156,303,150C328.4,144,354,126,379,126C404.2,126,429,144,455,147C480,150,505,138,531,114C555.8,90,581,54,606,33C631.6,12,657,6,682,27C707.4,48,733,96,758,102C783.2,108,808,72,834,63C858.9,54,884,72,909,78C934.7,84,960,78,985,63C1010.5,48,1036,24,1061,24C1086.3,24,1112,48,1137,60C1162.1,72,1187,72,1213,78C1237.9,84,1263,96,1288,93C1313.7,90,1339,72,1364,54C1389.5,36,1415,18,1440,18C1465.3,18,1491,36,1516,36C1541.1,36,1566,18,1592,12C1616.8,6,1642,12,1667,36C1692.6,60,1718,102,1743,108C1768.4,114,1794,84,1806,69L1818.9,54L1818.9,180L1806.3,180C1793.7,180,1768,180,1743,180C1717.9,180,1693,180,1667,180C1642.1,180,1617,180,1592,180C1566.3,180,1541,180,1516,180C1490.5,180,1465,180,1440,180C1414.7,180,1389,180,1364,180C1338.9,180,1314,180,1288,180C1263.2,180,1238,180,1213,180C1187.4,180,1162,180,1137,180C1111.6,180,1086,180,1061,180C1035.8,180,1011,180,985,180C960,180,935,180,909,180C884.2,180,859,180,834,180C808.4,180,783,180,758,180C732.6,180,707,180,682,180C656.8,180,632,180,606,180C581.1,180,556,180,531,180C505.3,180,480,180,455,180C429.5,180,404,180,379,180C353.7,180,328,180,303,180C277.9,180,253,180,227,180C202.1,180,177,180,152,180C126.3,180,101,180,76,180C50.5,180,25,180,13,180L0,180Z"/><defs><linearGradient id="sw-gradient-1" x1="0" x2="0" y1="1" y2="0"><stop stop-color="rgba(52, 89, 149, 1)" offset="0%"/><stop stop-color="rgba(58.597, 236.718, 250.361, 1)" offset="100%"/></linearGradient></defs><path style="transform:translate(0, 50px); opacity:0.9" fill="url(#sw-gradient-1)" d="M0,36L12.6,54C25.3,72,51,108,76,114C101.1,120,126,96,152,93C176.8,90,202,108,227,111C252.6,114,278,102,303,84C328.4,66,354,42,379,51C404.2,60,429,102,455,114C480,126,505,108,531,108C555.8,108,581,126,606,120C631.6,114,657,84,682,66C707.4,48,733,42,758,54C783.2,66,808,96,834,108C858.9,120,884,114,909,114C934.7,114,960,120,985,102C1010.5,84,1036,42,1061,33C1086.3,24,1112,48,1137,72C1162.1,96,1187,120,1213,123C1237.9,126,1263,108,1288,105C1313.7,102,1339,114,1364,126C1389.5,138,1415,150,1440,132C1465.3,114,1491,66,1516,60C1541.1,54,1566,90,1592,102C1616.8,114,1642,102,1667,87C1692.6,72,1718,54,1743,54C1768.4,54,1794,72,1806,81L1818.9,90L1818.9,180L1806.3,180C1793.7,180,1768,180,1743,180C1717.9,180,1693,180,1667,180C1642.1,180,1617,180,1592,180C1566.3,180,1541,180,1516,180C1490.5,180,1465,180,1440,180C1414.7,180,1389,180,1364,180C1338.9,180,1314,180,1288,180C1263.2,180,1238,180,1213,180C1187.4,180,1162,180,1137,180C1111.6,180,1086,180,1061,180C1035.8,180,1011,180,985,180C960,180,935,180,909,180C884.2,180,859,180,834,180C808.4,180,783,180,758,180C732.6,180,707,180,682,180C656.8,180,632,180,606,180C581.1,180,556,180,531,180C505.3,180,480,180,455,180C429.5,180,404,180,379,180C353.7,180,328,180,303,180C277.9,180,253,180,227,180C202.1,180,177,180,152,180C126.3,180,101,180,76,180C50.5,180,25,180,13,180L0,180Z"/></svg>