<svg id="Layer_2" data-name="Layer 2" xmlns="http://www.w3.org/2000/svg" viewBox="0 0 337 322.82"><polygon points="139.89 0 0.2 80.65 30.2 132.61 198 35.82 139.89 0" fill="#141556"/><rect y="80.82" width="59" height="162" fill="#141556"/><rect x="585" y="357" width="208" height="60" transform="translate(-668.19 180.17) rotate(-30)" fill="#141556"/><polygon points="337 138.82 280 172.82 280 47.82 336 48.82 337 138.82" fill="#31baf3"/><polygon points="308.5 96.2 201 35.82 256.73 2.77 336 48.82 308.5 96.2" fill="#31baf3"/><polygon points="227 144.82 191 144.82 197 92.82 227 108.82 227 144.82" fill="#141556"/><rect x="571.06" y="444.76" width="160.09" height="57.88" transform="translate(-242.92 -478.27) rotate(30)" fill="#141556"/><polygon points="278.41 241.47 139 322.82 110 273.82 279 173.82 278.41 241.47" fill="#141556"/></svg>